<svg xmlns="http://www.w3.org/2000/svg" width="105" height="105" fill="none" viewBox="0 0 113 85"><path fill="#000" fill-opacity=".04" fill-rule="evenodd" d="M75.991 83.838c10.506-4.118 21.963-11.755 28.68-21.817 9.76-14.622 9.339-25.814 5.659-37.427C106.612 12.855 94.508.361 77.726 6.216c-16.781 5.855-18.598 14.589-39.91 14.589-21.314 0-33.709 8.877-36.7 21.364s2.279 25.136 9.282 31.077c5.43 4.606 11.03 8.326 17.997 10.83z" clip-rule="evenodd"/><path stroke="#333" stroke-width="1.5" d="M19.089 27.57v-3.41c0-.406.329-.735.735-.735h3.41"/><path fill="#fff" fill-rule="evenodd" d="M73.503 61.993V5.746c0-2.662-2.19-4.822-4.89-4.822H32.727c-2.7 0-4.89 2.16-4.89 4.822v72.538c0 3.147 2.587 5.697 5.778 5.697h34.11c3.19 0 5.778-2.55 5.778-5.697z" clip-rule="evenodd"/><path fill="#EEE" fill-rule="evenodd" d="M67.638 81.183H33.875c-3.158 0-5.719-2.466-5.719-5.508v2.655c0 3.042 2.56 5.508 5.72 5.508h33.762c3.159 0 5.719-2.466 5.719-5.508v-2.655c0 3.042-2.56 5.508-5.719 5.508" clip-rule="evenodd"/><path fill="#FFE600" stroke="#fff" stroke-width="3" d="M29.37 11.555h42.666v60.618H29.37z"/><path stroke="#333" stroke-width="1.5" d="M27.87 62.91V5.746c0-2.662 2.19-4.822 4.89-4.822h35.886c2.7 0 4.89 2.16 4.89 4.822v6.795M27.87 65.205v13.079c0 3.147 2.587 5.697 5.778 5.697h34.11c3.191 0 5.778-2.55 5.778-5.697V19.128m0-4.219v1.814m-45.699 56.95H73.21m0-63.619H27.837M45.24 5.93h9.994m-8.077 72.456h5.855M80.67 23.425h2.923c.348 0 .63.329.63.734v3.41M19.089 59.55v2.922c0 .348.329.63.735.63h3.41m60.989-3.552v2.922c0 .348-.329.63-.735.63h-3.41M1.714 83.981h99.108"/><path fill="#fff" fill-rule="evenodd" d="M73.781 60.896H29.617a4.4 4.4 0 0 1-4.396-4.397V29.977a4.397 4.397 0 0 1 4.396-4.397h44.164a4.397 4.397 0 0 1 4.396 4.397V56.5a4.397 4.397 0 0 1-4.396 4.397" clip-rule="evenodd"/><path fill="#fff" stroke="#fff" stroke-width="3" d="M73.781 59.396H29.617a2.897 2.897 0 0 1-2.896-2.897V29.977c0-1.6 1.298-2.897 2.896-2.897h44.164a2.897 2.897 0 0 1 2.896 2.897V56.5c0 1.6-1.297 2.897-2.896 2.897Z"/><path stroke="#333" stroke-linecap="square" stroke-width="1.5" d="M54.725 52.119h18.704m-18.704-8.903h18.704m-18.704-8.903h18.704"/><path fill="#5AD2FF" d="M47.392 35.86v14.712a.54.54 0 0 1-.539.54h-14.66a.54.54 0 0 1-.538-.54V35.86a.54.54 0 0 1 .538-.54h14.66a.54.54 0 0 1 .539.54"/><mask id="a" fill="#fff"><rect width="18.967" height="19.035" x="30.04" y="33.699" rx="2"/></mask><rect width="18.967" height="19.035" x="30.04" y="33.699" fill="#FFE600" stroke="#fff" stroke-width="6" mask="url(#a)" rx="2"/><path fill="#fff" stroke="#333" stroke-width="1.5" d="M44.449 41.646c0 2.729-2.205 4.943-4.926 4.943s-4.925-2.214-4.925-4.943c0-2.73 2.205-4.943 4.925-4.943s4.926 2.214 4.926 4.943Z"/><path fill="#fff" d="M47.392 52.733s-.81-6.144-7.869-6.144-7.868 6.144-7.868 6.144"/><path stroke="#333" stroke-width="1.5" d="M47.392 52.733s-.81-6.144-7.869-6.144-7.868 6.144-7.868 6.144"/><rect width="18.967" height="19.035" x="30.04" y="33.699" stroke="#333" stroke-width="1.5" rx="2"/><path stroke="#333" stroke-width="1.5" d="M73.781 60.896H29.617a4.4 4.4 0 0 1-4.396-4.397V29.977a4.397 4.397 0 0 1 4.396-4.397h44.164a4.397 4.397 0 0 1 4.396 4.397V56.5a4.397 4.397 0 0 1-4.396 4.397Z" clip-rule="evenodd"/><path fill="#fff" fill-rule="evenodd" d="M60.023 56.535a.38.38 0 0 0-.246.35v10.473a16.58 16.58 0 0 0 3.563 10.344c2.264 2.878 5.476 5.025 9.434 5.953a16.87 16.87 0 0 0 9.254-5.953 16.58 16.58 0 0 0 3.563-10.344V56.889a.37.37 0 0 0-.245-.354L72.828 51.89a.46.46 0 0 0-.288 0z" clip-rule="evenodd"/><path fill="#FFE600" stroke="#fff" stroke-width="3" d="M61.331 67.364a15.16 15.16 0 0 0 3.23 9.425c1.98 2.532 4.763 4.446 8.204 5.337M61.33 67.364l-1.255-10.842a.375.375 0 0 0-.245.352v10.484a16.66 16.66 0 0 0 3.548 10.356c2.254 2.881 5.453 5.03 9.395 5.96M61.33 67.364v-9.709l11.352-4.237M61.331 67.364l11.352-13.946m.082 28.708q-.175.048-.351.091l.36 1.457m-.01-1.548a15.3 15.3 0 0 0 8.043-5.337 15.16 15.16 0 0 0 3.229-9.425v-9.709l-11.353-4.237m.082 28.708.353.088-.344 1.46m0 0a16.8 16.8 0 0 0 9.214-5.96 16.66 16.66 0 0 0 3.548-10.356V56.877a.4.4 0 0 0-.067-.217l-12.785-3.242m11.352 3.455v.004z"/><path stroke="#333" stroke-width="1.5" d="M60.03 56.522a.375.375 0 0 0-.245.352v10.484a16.66 16.66 0 0 0 3.548 10.356c2.254 2.881 5.453 5.03 9.395 5.96a16.8 16.8 0 0 0 9.214-5.96 16.66 16.66 0 0 0 3.548-10.356V56.877a.37.37 0 0 0-.244-.355L72.78 51.87a.46.46 0 0 0-.287 0z" clip-rule="evenodd"/><circle cx="72.663" cy="64.798" r="5.984" fill="#fff" stroke="#333" stroke-width="1.5"/></svg>