<svg xmlns="http://www.w3.org/2000/svg" fill="none" viewBox="0 0 105 105"><circle cx="53" cy="53" r="45.54" fill="#EEE"/><path fill="#fff" d="M18.637 41.012h76.944v45.261H18.637z"/><path stroke="#333" stroke-width="1.969" d="M18.637 46.262v5.456m76.944-5.456V68.78M18.637 56.968v29.305h76.944v-3.055m0-9.187v3.937"/><rect width="26.034" height="18.411" x="32.319" y="56.297" fill="#fff" stroke="#333" stroke-width="1.969" rx="1.313"/><path stroke="#333" stroke-width="1.969" d="m50.75 67.964 4.486-4.018m-19.491 2.842 4.486-4.018"/><path fill="#fff" fill-rule="evenodd" d="M45.336 74.708V56.296Z" clip-rule="evenodd"/><path stroke="#333" stroke-width="1.969" d="M45.336 74.708V56.296"/><mask id="a" fill="#fff"><path fill-rule="evenodd" d="M20.908 46.64c4.886 0 8.847-3.073 8.847-6.864l.15-8.783H12.213l-.15 8.783c0 3.791 3.96 6.865 8.846 6.865m47.588 8.092c0-.725.588-1.313 1.313-1.313h19.07c.725 0 1.313.588 1.313 1.313v31.541H68.497zm-45.918 8.91 3.075 17.494H12.967l-3.15-17.494zm42.866-23.866c0 3.791-3.96 6.865-8.847 6.865s-8.847-3.074-8.847-6.865l.15-8.783h17.694zm26.842 6.865c4.886 0 8.847-3.074 8.847-6.865l.15-8.783H83.589l-.15 8.783c0 3.791 3.96 6.865 8.847 6.865" clip-rule="evenodd"/></mask><path fill="#FFE600" fill-rule="evenodd" d="M20.908 46.64c4.886 0 8.847-3.073 8.847-6.864l.15-8.783H12.213l-.15 8.783c0 3.791 3.96 6.865 8.846 6.865m47.588 8.092c0-.725.588-1.313 1.313-1.313h19.07c.725 0 1.313.588 1.313 1.313v31.541H68.497zm-45.918 8.91 3.075 17.494H12.967l-3.15-17.494zm42.866-23.866c0 3.791-3.96 6.865-8.847 6.865s-8.847-3.074-8.847-6.865l.15-8.783h17.694zm26.842 6.865c4.886 0 8.847-3.074 8.847-6.865l.15-8.783H83.589l-.15 8.783c0 3.791 3.96 6.865 8.847 6.865" clip-rule="evenodd"/><path fill="#fff" d="m29.755 39.776-3.937-.068v.068zm.15-8.783 3.938.067.068-4.004h-4.005zm-17.693 0v-3.937H8.34l-.066 3.87zm-.15 8.783-3.938-.068v.068zm78.13 46.497v3.938h3.937v-3.938zm-21.695 0h-3.938v3.938h3.938zm-42.844-5.137v3.937h4.69l-.812-4.62zm-3.075-17.494 3.878-.681-.572-3.256h-3.306zm-9.611 17.494-3.876.697.583 3.24h3.293zm-3.15-17.494v-3.937H5.109l.835 4.635zm55.627-23.866-3.937-.068v.068zm-17.694 0-3.937-.068v.068zm.15-8.783v-3.937h-3.87l-.067 3.87zm17.694 0 3.937.067.069-4.004h-4.006zm35.539 8.783-3.937-.068v.068zm.15-8.783 3.937.067.069-4.004h-4.006zm-17.694 0v-3.937h-3.87l-.067 3.87zm-.15 8.783-3.937-.068v.068zm-57.621 0c0 .745-1.21 2.927-4.91 2.927v7.875c6.073 0 12.785-3.965 12.785-10.802zm.15-8.85-.15 8.782 7.874.135.15-8.783zM12.213 34.93h17.694v-7.875H12.212zm3.786 4.912.15-8.783-7.873-.134-.15 8.782zm4.91 2.86c-3.699 0-4.91-2.182-4.91-2.927H8.125c0 6.837 6.711 10.802 12.784 10.802zm48.901 6.779a5.25 5.25 0 0 0-5.25 5.25h7.875a2.625 2.625 0 0 1-2.625 2.625zm19.07 0H69.81v7.875h19.07zm5.25 5.25c0-2.9-2.35-5.25-5.25-5.25v7.875a2.625 2.625 0 0 1-2.625-2.625zm0 31.541v-31.54h-7.875v31.541zM68.497 90.21h21.696v-7.876H68.497zM64.56 54.73v31.542h7.875v-31.54zM29.531 80.455 26.456 62.96 18.7 64.324l3.075 17.493zm-16.564 4.62h12.686v-7.876H12.967zM5.943 64.34 9.09 81.833l7.75-1.395-3.148-17.493zm16.635-4.635H9.818v7.875h12.76zm34.02-9.127c6.072 0 12.784-3.965 12.784-10.802h-7.875c0 .745-1.21 2.927-4.91 2.927zM43.812 39.776c0 6.837 6.711 10.802 12.784 10.802v-7.875c-3.7 0-4.91-2.182-4.91-2.927zm.15-8.85-.15 8.782 7.874.135.15-8.783zm21.631-3.87H47.9v7.875h17.694zm3.787 12.787.15-8.783-7.874-.134-.15 8.782zm27.814-.067c0 .745-1.21 2.927-4.91 2.927v7.875c6.074 0 12.785-3.965 12.785-10.802zm.151-8.85-.15 8.782 7.874.135.15-8.783zM83.59 34.93h17.694v-7.875H83.589zm3.787 4.912.15-8.783-7.874-.134-.15 8.782zm4.91 2.86c-3.7 0-4.91-2.182-4.91-2.927h-7.875c0 6.837 6.712 10.802 12.785 10.802z" mask="url(#a)"/><path stroke="#333" stroke-width="1.969" d="M68.497 56.044a2.625 2.625 0 0 1 2.624-2.625h16.446a2.625 2.625 0 0 1 2.625 2.625v30.23H68.497z"/><circle cx="79.344" cy="62.564" r="3.188" fill="#fff" stroke="#333" stroke-width="1.969"/><path stroke="#333" stroke-width="1.969" d="m5.31 86.19 3.894-22.548h12.76"/><path stroke="#333" stroke-width="1.969" d="m26.472 86.19-3.894-22.548H9.818l3.894 22.548"/><path stroke="#333" stroke-width="1.969" d="m25.653 81.136-3.075-17.494H9.818l3.075 17.494z" clip-rule="evenodd"/><path fill="#fff" fill-rule="evenodd" stroke="#333" stroke-width="1.969" d="M47.6 39.776c0 3.791-3.961 6.865-8.847 6.865s-8.847-3.074-8.847-6.865l.15-8.783H47.75zm35.689 0c0 3.791-3.961 6.865-8.847 6.865-4.887 0-8.848-3.074-8.848-6.865l.15-8.783H83.44z" clip-rule="evenodd"/><path stroke="#333" stroke-width="1.969" d="M29.755 39.776c0 3.791-3.96 6.865-8.847 6.865s-8.847-3.074-8.847-6.865l.15-8.783h17.695zm35.689 0c0 3.791-3.96 6.865-8.847 6.865s-8.847-3.074-8.847-6.865l.15-8.783h17.694zm35.689 0c0 3.791-3.961 6.865-8.847 6.865s-8.847-3.074-8.847-6.865l.15-8.783h17.694z" clip-rule="evenodd"/><path fill="#fff" fill-rule="evenodd" stroke="#333" stroke-width="1.969" d="m11.98 30.727.058-.069c.832-.989 7.595-11.557 8.006-12.06a3.62 3.62 0 0 1 2.806-1.32h67.385c1.096 0 2.124.547 2.758 1.466 0 0 8.805 11.796 8.258 11.963s-89.484.282-89.27.02Z" clip-rule="evenodd"/></svg>