<svg xmlns="http://www.w3.org/2000/svg" width="100" height="100" fill="none" viewBox="0 0 105 105"><circle cx="53" cy="53" r="45.54" fill="#EEE"/><path stroke="#333" stroke-width="1.969" d="M43.399 30.944V19.765a7.45 7.45 0 0 1 7.452-7.453h4.077a7.45 7.45 0 0 1 7.452 7.453v11.179"/><mask id="a" fill="#fff"><path fill-rule="evenodd" d="M40.718 25.72a.656.656 0 0 1 .656-.64h46.571c.331 0 .61.246.652.574l7.705 61.78a.656.656 0 0 1-.65.737l-55.662.143a.656.656 0 0 1-.657-.671z" clip-rule="evenodd"/></mask><path fill="#FFE600" fill-rule="evenodd" d="M40.718 25.72a.656.656 0 0 1 .656-.64h46.571c.331 0 .61.246.652.574l7.705 61.78a.656.656 0 0 1-.65.737l-55.662.143a.656.656 0 0 1-.657-.671z" clip-rule="evenodd"/><path fill="#fff" d="m39.99 88.314-.01-3.938zm56.312-.88 3.907-.488zm-.65.737.01 3.937zm-7.055-62.517 3.907-.487zm-47.223 3.363h46.571v-7.875h-46.57zm43.315-2.875 7.706 61.779 7.814-.975-7.705-61.779zm10.953 58.091-55.662.143.02 7.875 55.662-.143zM43.27 87.731l1.386-61.922-7.873-.176-1.386 61.922zm-3.289-3.355a3.28 3.28 0 0 1 3.29 3.355l-7.874-.176A4.594 4.594 0 0 0 40 92.25zm52.415 3.545a3.28 3.28 0 0 1 3.247-3.688l.02 7.875a4.593 4.593 0 0 0 4.547-5.162zm-4.45-58.904a3.28 3.28 0 0 1-3.256-2.875l7.815-.975a4.594 4.594 0 0 0-4.559-4.025zm-46.57-7.875a4.594 4.594 0 0 0-4.593 4.49l7.873.177a3.28 3.28 0 0 1-3.28 3.208z" mask="url(#a)"/><path fill="#fff" stroke="#fff" stroke-width="3.938" d="m29.655 26.879-.006-1.361.006 1.36m0 0-.251-.073a2 2 0 0 0 .25.074m.001 0v.17h-.007M18.087 87.871l.003-1.603zm2.02-1.668L31.363 27.04l.81-.004h.278l.028-.001h.171l.03-.001h.203l.03-.001h.177l1.993-.01 3.41-.016-.014.708-.138 7.18-.417 21.779c-.15 7.917-.3 15.832-.408 21.76a5967 5967 0 0 0-.14 7.86q-.604-.008-1.339-.014c-1.993-.02-4.652-.034-7.31-.046s-5.317-.021-7.311-.027zM29.36 27.03l.134.017a6 6 0 0 0 .754.036h.005c.041-.002.172-.007.34-.04z"/><path stroke="#333" stroke-width="1.969" d="M86.935 87.696a.296.296 0 0 1-.237.472H18.086a.296.296 0 0 1-.29-.351L24.42 53m21.7-27.92H29.646c-.083 0 .65.078.607.007a.296.296 0 0 0-.542.1L25.419 47.75"/><path stroke="#333" stroke-width="1.969" d="M29.64 25.32a.296.296 0 0 1 .543-.1l4.116 6.69a.296.296 0 0 0 .48.033l5.41-6.492a.296.296 0 0 1 .465.013m53.236 42.63-5.293-42.44a.656.656 0 0 0-.652-.575h-46.57a.656.656 0 0 0-.657.642l-1.385 61.922a.656.656 0 0 0 .657.67l55.663-.142a.656.656 0 0 0 .649-.738l-.587-4.708m-1.17-9.381.49 3.937m-77.01 11.034 11.977-6.506 9.316 6.506m-9.464-6.505 4.908-49.622"/><path stroke="#333" stroke-width="1.969" d="M57.061 30.944V19.765a7.45 7.45 0 0 1 7.453-7.453h4.077a7.45 7.45 0 0 1 7.452 7.453v11.179"/><path fill="#fff" fill-rule="evenodd" stroke="#333" stroke-width="1.969" d="M87.057 39.224c.175 0 .342.07.466.194l14.27 14.343a.656.656 0 0 1-.001.927L89.774 66.706a.656.656 0 0 1-.93-.001L74.56 52.347a.66.66 0 0 1-.19-.425l-.706-12.003a.656.656 0 0 1 .655-.695z" clip-rule="evenodd"/><circle cx="81.648" cy="46.688" r="2.636" fill="#fff" stroke="#333" stroke-width="1.969"/><path stroke="#333" stroke-width="1.969" d="M71.552 25.029c2.958-4.14 7.353-1.68 8.906 1.266 2.33 4.418 2.912 10.309 1.165 20.618"/><path fill="#fff" fill-rule="evenodd" d="M54.72 62.65c.775 1.303 1.85 2.413 4.538 2.427 3.562.146 4.705-1.767 5.154-2.822.45-1.056 1.02-3.237 4.693-3.16 2.606.054 3.876 2.088 4.395 3.264.189.43.307.888.367 1.357l.087.698.833 6.687.517 8.588s.728.227.728 1.836v5.06c0 .925-.81 2.175-1.98 2.175H20.44c-6.893 0-13.219-2.156-14.467-5.406a3.3 3.3 0 0 1-.222-1.182c0-2.595 1.426-4.221 2.38-5.02a4 4 0 0 1 1.453-.772c1.587-.471 5.927-1.785 8.897-2.948 1.212-.474 3.698-1.6 6.683-3.012 0 0 14.383-6.938 18.875-9.606 0 0 .328-.207.46-.296 4.697-3.2 8.29-6.77 9.884-8.46a1.162 1.162 0 0 1 1.827.161c.563.838 1.214 2.094 1.426 3.638.397 3.16-1.61 6.28-3.107 6.975" clip-rule="evenodd"/><path stroke="#333" stroke-width="1.969" d="M54.72 62.65c.775 1.303 1.85 2.413 4.538 2.427 3.562.146 4.705-1.767 5.154-2.822.45-1.056 1.02-3.237 4.693-3.16 2.606.054 3.876 2.088 4.395 3.264.189.43.307.888.367 1.357l.087.698.833 6.687.517 8.588s.728.227.728 1.836v5.06c0 .925-.81 2.175-1.98 2.175H20.44c-6.893 0-13.219-2.156-14.467-5.406a3.3 3.3 0 0 1-.222-1.182c0-2.595 1.426-4.221 2.38-5.02a4 4 0 0 1 1.453-.772c1.587-.471 5.927-1.785 8.897-2.948 1.212-.474 3.698-1.6 6.683-3.012 0 0 14.383-6.938 18.875-9.606 0 0 .328-.207.46-.296 4.697-3.2 8.29-6.77 9.884-8.46a1.162 1.162 0 0 1 1.827.161c.563.838 1.214 2.094 1.426 3.638.397 3.16-1.61 6.28-3.107 6.975"/><path stroke="#333" stroke-width="1.969" d="M75.454 79.69c-.153.031-11.206.064-11.352.097-2.548.585-2.171 1.314-3.435 2.433-1.235 1.094-2.552 1.562-3.622 1.398l-50.716.741M18 73.57a9.23 9.23 0 0 0 7.224.56c5.272-1.776 17.039-6.832 20.98-9.073 1.396-.794 1.6-2.532 2.067-3.737.312-.804.836-1.505 1.544-1.937.765-.468 1.805-.706 2.906.206 1.02.846 1.458 2.102 2.125 3.21"/><path fill="#FFE600" stroke="#fff" stroke-width="3.938" d="m31.63 73.815 5.888 8.15 11.162-.157-11.51-10.156z"/><path stroke="#333" stroke-width="1.969" d="m36.522 83.949-6.51-9.011-1.468-2.032 9.029-3.525 16.232 14.324z" clip-rule="evenodd"/><path stroke="#333" stroke-width="1.969" d="M10.401 76.061c.268.309.574.62.919.913.448.38.962.725 1.543.986 2.572 1.154 4.287.178 9.175 1.509 1.745.476 3.053 1.789 4.013 3.28.252.392.48.795.686 1.2m14.438-17.396-4.08-6.346m-2.035 9.174-4.08-6.345m-2.4 9.814-4.08-6.345"/></svg>